# Made in Blockbench 5.0.5
mtllib portal_field.mtl

o circle
v 0 1.25 0
v 0.023353310884969763 1.5169295648578491 0.9999999999999999
v 0.06380243186268869 1.9792651332338962 0.7320508075688773
v 0.08715574274765846 2.2461946980917453 0.26794919243112264
v 0.08715574274765846 2.2461946980917453 -0.26794919243112275
v 0.0638024318626887 1.9792651332338962 -0.7320508075688772
v 0.02335331088496979 1.5169295648578496 -0.9999999999999998
v -0.023353310884969728 0.9830704351421511 -1
v -0.06380243186268869 0.5207348667661039 -0.7320508075688774
v -0.08715574274765846 0.2538053019082547 -0.26794919243112253
v -0.08715574274765847 0.25380530190825457 0.2679491924311222
v -0.06380243186268872 0.5207348667661037 0.7320508075688771
v -0.023353310884969756 0.9830704351421509 0.9999999999999999
vt 5.551115123125783e-17 0.48236248083238786
vt 0.25881875958380607 0.5517119783972586
vt 0 1
vt 0.5 0.73205
vt 0.5 1
vt 0 0.866025
vt 0.5176381947122913 0.7411815781880927
vt 0.44828743656363346 1
vt 0 0.7411815781880928
vt 0.5176375191676121 0.7411812404161939
vt 0.44828802160274145 1
vt 0 0.7411812404161939
vt 0.26795 1
vt 0 1
vt 0.133975 0.5
vt 0.2588184218119073 1
vt 0 0.9306492418513421
vt 0.2588184218119072 0.48236180528770867
vt 0.258818759583806 1
vt 0 0.9306505024351293
vt 0.25881875958380607 0.48236248083238786
vt 0 1
vt 0 0.73205
vt 0.5 0.866025
vt 0 1
vt 0.06935075814865788 0.7411815781880927
vt 0.5176381947122913 0.9999999999999999
vt 0 1
vt 0.06934949756487069 0.7411812404161939
vt 0.5176375191676121 1
vt 0 0.5
vt 0.26795 0.5
vt 0.133975 1
vt 0 0.48236180528770867
vt 0.2588184218119073 0.5517125634363665
vt 8.326672684688674e-17 1
vn -0.9961946980917457 0.08715574274765849 0
vn -0.9961946980917457 0.08715574274765849 0
vn -0.9961946980917457 0.08715574274765849 0
vn -0.9961946980917457 0.08715574274765849 0
vn -0.9961946980917457 0.08715574274765849 0
vn -0.9961946980917457 0.08715574274765849 0
vn -0.9961946980917457 0.08715574274765849 0
vn -0.9961946980917457 0.08715574274765849 0
vn -0.9961946980917457 0.08715574274765849 0
vn -0.9961946980917457 0.08715574274765849 0
vn -0.9961946980917457 0.08715574274765849 0
vn -0.9961946980917457 0.08715574274765849 0
usemtl none
f 3/1/1 4/2/1 1/3/1
f 4/4/2 5/5/2 1/6/2
f 5/7/3 6/8/3 1/9/3
f 6/10/4 7/11/4 1/12/4
f 7/13/5 8/14/5 1/15/5
f 8/16/6 9/17/6 1/18/6
f 9/19/7 10/20/7 1/21/7
f 10/22/8 11/23/8 1/24/8
f 11/25/9 12/26/9 1/27/9
f 12/28/10 13/29/10 1/30/10
f 13/31/11 2/32/11 1/33/11
f 2/34/12 3/35/12 1/36/12