# Made in Blockbench 5.0.5
mtllib portal_bridge_piece.mtl

o tube
v -0.06249999999999994 0.6695508075688774 0.9999999999999999
v 0.5625000000000001 0.6695508075688774 0.9999999999999999
v -0.062499999999999944 0.6935922325698314 0.910276180410083
v 0.5625 0.6935922325698314 0.910276180410083
v 1.6254793235168146e-16 0.2054491924311228 0.7320508075688773
v 0.5000000000000001 0.20544919243112292 0.7320508075688773
v 1.4796351099464516e-16 0.2711315870200858 0.6663684129799143
v 0.5000000000000001 0.2711315870200859 0.6663684129799143
v 2.2204460492503128e-16 -0.06249999999999989 0.26794919243112264
v 0.5000000000000002 -0.06249999999999978 0.26794919243112264
v 2.021219148518234e-16 0.027223819589917042 0.24390776743016865
v 0.5000000000000002 0.027223819589917153 0.24390776743016865
v 2.2204460492503128e-16 -0.06249999999999989 -0.26794919243112275
v 0.5000000000000002 -0.06249999999999978 -0.26794919243112275
v 2.021219148518234e-16 0.027223819589917042 -0.24390776743016876
v 0.5000000000000002 0.027223819589917153 -0.24390776743016876
v 1.6254793235168148e-16 0.2054491924311227 -0.7320508075688772
v 0.5000000000000001 0.2054491924311228 -0.7320508075688772
v 1.4796351099464518e-16 0.27113158702008566 -0.6663684129799142
v 0.5000000000000001 0.2711315870200858 -0.6663684129799142
v -0.06249999999999994 0.669550807568877 -0.9999999999999998
v 0.5625000000000001 0.6695508075688772 -0.9999999999999998
v -0.062499999999999944 0.6935922325698312 -0.9102761804100828
v 0.5625 0.6935922325698312 -0.9102761804100828
v -0.06250000000000006 1.1934284799306454 -1
v 0.5624999999999999 1.1934284799306456 -1
v -0.06250000000000006 1.1934284799306454 -0.9102761804100831
v 0.5624999999999999 1.1934284799306456 -0.9102761804100831
v -0.06250000000000006 1.1934284799306454 0.9999999999999999
v 0.5624999999999999 1.1934284799306456 0.9999999999999999
v -0.06250000000000006 1.1934284799306454 0.910276180410083
v 0.5624999999999999 1.1934284799306456 0.910276180410083
vt 0 0.5
vt 0.5359 0.5
vt 0.5359 1
vt 0 1
vt 0.4878125 1
vt 0 1
vt 0 0.5
vt 0.4878125 0.5
vt 0 0.9759604105644105
vt 0 0.4881440284129781
vt 0.08972214559073732 0.46410261011622256
vt 0.08972611480962933 1
vt 0 0.9102740632463068
vt 0.5358973898984767 0.9102740632463066
vt 0.5118566361453363 0.9999963869016036
vt 0.02404025400728424 1
vt 0 0.5
vt 0.5359 0.5
vt 0.5359 1
vt 0 1
vt 0.4878125 1
vt 0 1
vt 0 0.5
vt 0.4878125 0.5
vt 1.1102230246251565e-16 0.9759585817032446
vt 0 0.48814219955181204
vt 0.08972611480962933 0.46410261011622267
vt 0.08972214559073732 1
vt 0 0.9102740632463071
vt 0.5358973898984766 0.9102740632463067
vt 0.5118571358911925 1
vt 0.02404075375314052 0.9999963869016041
vt 0 0.5
vt 0.5359 0.5
vt 0.5359 1
vt 0 1
vt 0.4878125 1
vt 0 1
vt 0 0.5
vt 0.4878125 0.5
vt 1.3322676295501878e-15 0.97595625
vt 1.3322676295501878e-15 0.48814375
vt 0.08972500000000139 0.46409999999999996
vt 0.08972500000000139 1
vt 0.08972500000000139 0.46409999999999996
vt 0.08972500000000139 1
vt 1.3322676295501878e-15 0.97595625
vt 1.3322676295501878e-15 0.48814375
vt 0 0.5
vt 0.5359 0.5
vt 0.5359 1
vt 0 1
vt 0.4878125 1
vt 0 1
vt 0 0.5
vt 0.4878125 0.5
vt 0.511857800448188 1
vt 0.02404141829675549 1
vt 0 0.9102778544092627
vt 0.5358973898837774 0.9102738851903707
vt 0.08972593675369334 0.4641026101015232
vt 0.08972593675369311 1
vt 0.0000036130983961379926 0.9759592462468595
vt 0 0.4881428641088075
vt 0 0.5
vt 0.5359 0.5
vt 0.5359 1
vt 0 1
vt 0.4878125 1
vt 0 1
vt 0 0.5
vt 0.4878125 0.5
vt 0.5118559715870219 0.9999999999999999
vt 0.024039589435589398 1
vt 0 0.9102738851903707
vt 0.5358973898837773 0.9102778544092627
vt 0.08972593675369334 0.4641026101015233
vt 0.08972593675369311 1
vt 0 0.9759597459927157
vt 0.0000036130983964710595 0.4881433638546637
vt 0 0.5
vt 0.5359 0.5
vt 0.5359 1
vt 0 1
vt 0.4878125 1
vt 0 1
vt 0 0.5
vt 0.4878125 0.5
vt 0.51185625 0.9999999999999987
vt 0.02404375000000003 0.9999999999999987
vt 0 0.9102749999999986
vt 0.5359 0.9102749999999986
vt 0.5359 1
vt 0 1
vt 0.02404375000000003 0.910275
vt 0.51185625 0.910275
vt 0 0.5
vt 0.5359 0.5
vt 0.5359 1
vt 0 1
vt 0.4878125 1
vt 0 1
vt 0 0.5
vt 0.4878125 0.5
vt 0.02404375000000003 0.910275
vt 0.51185625 0.910275
vt 0.5359 1
vt 0 1
vt 0 0.9102749999999986
vt 0.5359 0.9102749999999986
vt 0.51185625 0.9999999999999987
vt 0.02404375000000003 0.9999999999999987
vt 0 1
vt 0 0.5
vt 0.08972500000000005 0.5
vt 0.08972500000000005 1
vt 1.3322676295501878e-15 0.5
vt 0.08972500000000139 0.5
vt 0.08972500000000139 1
vt 1.3322676295501878e-15 1
vn 1.1102230246251563e-16 -0.4999999999999999 0.8660254037844389
vn -1.1102230246251563e-16 0.4999999999999999 -0.8660254037844387
vn -0.9913174710178033 -0.09297760928004907 -0.09297760928004885
vn 0.99278958005819 -0.08476098668574804 -0.08476098668574826
vn 1.9229626863835643e-16 -0.8660254037844388 0.5
vn -1.922962686383564e-16 0.8660254037844387 -0.49999999999999994
vn -1 -2.220446049250313e-16 0
vn 1 2.220446049250313e-16 0
vn 2.220446049250313e-16 -1 0
vn -2.220446049250313e-16 1 0
vn -1 -2.220446049250313e-16 0
vn 1 2.220446049250313e-16 0
vn 1.9229626863835643e-16 -0.8660254037844388 -0.5
vn -1.922962686383564e-16 0.8660254037844387 0.5
vn -1 -2.220446049250313e-16 0
vn 1 2.220446049250313e-16 0
vn 1.1102230246251568e-16 -0.5000000000000001 -0.8660254037844388
vn -6.550415286348675e-17 0.5000000000000001 0.8660254037844388
vn -0.9913174710178032 -0.1270097762596907 0.034032166979641766
vn 0.99278958005819 -0.1157856610625665 0.03102467437681848
vn 9.411320462282662e-32 -4.238481932700052e-16 -1
vn -9.86399182465103e-32 4.4423469905884e-16 1
vn -1 -2.220446049250313e-16 0
vn 1 2.220446049250313e-16 0
vn 0 0 1
vn 0 0 -1
vn -1 -2.220446049250313e-16 0
vn 1 2.220446049250313e-16 0
vn -2.220446049250313e-16 1 0
vn -2.220446049250313e-16 1 0
usemtl none
f 1/1/1 5/2/1 6/3/1 2/4/1
f 4/5/2 8/6/2 7/7/2 3/8/2
f 3/9/3 7/10/3 5/11/3 1/12/3
f 2/13/4 6/14/4 8/15/4 4/16/4
f 5/17/5 9/18/5 10/19/5 6/20/5
f 8/21/6 12/22/6 11/23/6 7/24/6
f 7/25/7 11/26/7 9/27/7 5/28/7
f 6/29/8 10/30/8 12/31/8 8/32/8
f 9/33/9 13/34/9 14/35/9 10/36/9
f 12/37/10 16/38/10 15/39/10 11/40/10
f 11/41/11 15/42/11 13/43/11 9/44/11
f 10/45/12 14/46/12 16/47/12 12/48/12
f 13/49/13 17/50/13 18/51/13 14/52/13
f 16/53/14 20/54/14 19/55/14 15/56/14
f 15/57/15 19/58/15 17/59/15 13/60/15
f 14/61/16 18/62/16 20/63/16 16/64/16
f 17/65/17 21/66/17 22/67/17 18/68/17
f 20/69/18 24/70/18 23/71/18 19/72/18
f 19/73/19 23/74/19 21/75/19 17/76/19
f 18/77/20 22/78/20 24/79/20 20/80/20
f 21/81/21 25/82/21 26/83/21 22/84/21
f 24/85/22 28/86/22 27/87/22 23/88/22
f 23/89/23 27/90/23 25/91/23 21/92/23
f 22/93/24 26/94/24 28/95/24 24/96/24
f 29/97/25 1/98/25 2/99/25 30/100/25
f 32/101/26 4/102/26 3/103/26 31/104/26
f 31/105/27 3/106/27 1/107/27 29/108/27
f 30/109/28 2/110/28 4/111/28 32/112/28
f 26/113/29 25/114/29 27/115/29 28/116/29
f 31/117/30 29/118/30 30/119/30 32/120/30